<svg id="Layer_1" data-name="Layer 1" xmlns="http://www.w3.org/2000/svg" viewBox="0 0 451 599.7"><path d="M435.15,115H99.63A36.74,36.74,0,0,0,63,151.67V678.11a36.39,36.39,0,0,0,8.14,23l0,0,0,0,0,.05,0,0,0,0,0,.05,0,0,0,0,0,.05,0,0,0,0,0,0,0,0,0,.05,0,0h0l0,0,0,.05,0,0,0,0,0,.05,0,0,.16.18h0l0,0,0,0,.13.14,0,0,0,0,0,0,0,.05,0,0,0,.05h0l0,0,0,0,0,.05,0,0,0,0,0,0,0,0,0,0,0,0,.13.13,0,0,.08.09,0,0h0l0,0,0,0,0,0,0,0,0,0,0,0,0,0h0l0,0,.13.14,0,0,0,0,.05,0a36.52,36.52,0,0,0,25.87,10.75H477.37A36.72,36.72,0,0,0,514,678.11V196.91a36.74,36.74,0,0,0-36.63-36.63h-5.59v-8.61A36.74,36.74,0,0,0,435.15,115Zm65.18,403.85V678.11a23,23,0,0,1-23,23H99.63a23,23,0,0,1,0-45.92H435.15a36.74,36.74,0,0,0,36.63-36.63V174h5.59a23,23,0,0,1,23,23v322Z" transform="translate(-63 -115.04)" fill="#ff8282" fill-rule="evenodd"/></svg>